/* XPM */
static char *pixmap[] = {
/* width height ncols cpp */
"32 32 14 2",
  /* Colors */
  "00 c #000000",
  "01 c #9B2215",
  "02 c #242424",
  "03 c #FF0000",
  "04 c #00FF00",
  "05 c #191919",
  "06 c #101010",
  "07 c #090000",
  "08 c #44AD10",
  "09 c #080808",
  "0A c #0F0302",
  "0B c #0F0704",
  "0C c #180604",
  ".. s None c None",
  "............................0606060606060606060606..............",
  "..........................060208080808080808080806..............",
  "........................06000808080808080808080806..............",
  "......................0604060808080808080808080806..............",
  "....................060404060808080808080808080806..............",
  "..................06040404060808080808080808080806..............",
  "................0604040404060808080808080808080806..............",
  "..............060404040404060808080808080808080806..............",
  "............06040404040404060606060606060606060606..............",
  "..........060404040404040406....................................",
  "..........060404040404040406....................................",
  "..........060404040404040406................06..................",
  "..0606060606040404040404040606060605......050305................",
  "....000404040404040404040404040400......0503030306..............",
  "......09040404040404040404040409......05030303030305............",
  "........0504040404040404040409......050303030303030306..........",
  "..........060404040404040409......0503030303030303030305........",
  "............05040404040409......05030303030303030303030309......",
  "..............0604040409......090303030303030303030303030300....",
  "................000409......0606060606030303030303030000000000..",
  "..................00................060303030303030300..........",
  "....................................060303030303030300..........",
  "....................................060303030303030300..........",
  "..............06060606060606060606060603030303030300............",
  "..............060101010101010101010107030303030300..............",
  "..............06010101010101010101010B0303030300................",
  "..............06010101010101010101010C03030300..................",
  "..............06010101010101010101010A030300....................",
  "..............0601010101010101010101000300......................",
  "..............06010101010101010101010900........................",
  "..............060101010101010101010000..........................",
  "..............0606060606060606060606............................",
};
