/* XPM */
static char *pixmap[] = {
/* width height ncols cpp */
"16 16 8 2",
  /* Colors */
  "00 c #000000",
  "01 c #F40000",
  "02 c #49B811",
  "03 c #A42516",
  "04 c #3E0E09",
  "05 c #FF0000",
  "06 c #00FF00",
  ".. s None c None",
  "............00000000000000......",
  "..........0000000202020200......",
  "........000200020202020200......",
  "......00020600020202020200......",
  "....0002060600000000000000......",
  "..000006060600......0400........",
  "00020606060600000000010300......",
  "..00020606060606000505050300....",
  "....00020606060005050501050300..",
  "......00020600000000050505050300",
  "........0000......000505050000..",
  "......0000000000000005050300....",
  "......00030303030300010300......",
  "......000303030303000300........",
  "......0003030303000000..........",
  "......00000000000000............",
};
