/* XPM */
static char *pixmap[] = {
/* width height ncols cpp */
"48 48 12 2",
  /* Colors */
  "00 c #000000",
  "01 c #00FF00",
  "02 c #FF0000",
  "03 c #9D2315",
  "04 c #43A910",
  "05 c #0F0000",
  "06 c #333333",
  "07 c #0D2003",
  "08 c #101010",
  "09 c #040B01",
  "0A c #112A04",
  ".. s None c None",
  "........................................0006000000000000000000000000000000......................",
  "......................................0000000000000000000000000000000A0000......................",
  "....................................00000007040404040404040404040404040000......................",
  "..................................0000000904040404040404040404040404040000......................",
  "................................000000000404040404040404040404040404040000......................",
  "..............................00000000000404040404040404040404040404040000......................",
  "............................0000000400000404040404040404040404040404040000......................",
  "..........................000000040100000404040404040404040404040404040000......................",
  "........................00000004010100000404040404040404040404040404040000......................",
  "......................0000000401010100000404040404040404040404040404040000......................",
  "....................000000040101010100000404040404040404040404040404040000......................",
  "..................00000004010101010100000000000000000000000000000000000000......................",
  "................0000000401010101010100000000000000000000000000000000000000......................",
  "..............00000004010101010101010000........................................................",
  "..............08000401010101010101010000........................................................",
  "..............00000101010101010101010000..........................00............................",
  "..............00000101010101010101010000........................000000..........................",
  "00000000000000000001010101010101010100000000000000000000......0000000000........................",
  "000000000000000000010101010101010101000000000000000008......00000003000000......................",
  "..00000004010101010101010101010101010101010101000008......000000020203000000....................",
  "....0000000401010101010101010101010101010101000008......0000000202020203000000..................",
  "......000000040101010101010101010101010101000000......00000002020202020203000000................",
  "........00000004010101010101010101010101000000......000000020202020202020203000000..............",
  "..........0000000401010101010101010101000000......0000000202020202020202020203000000............",
  "............000000040101010101010101000000......00000002020202020202020202020203000000..........",
  "..............00000004010101010101000000......000000020202020202020202020202020203000000........",
  "................0000000401010101000000......0000000202020202020202020202020202020203000000......",
  "..................000000040101000000......00000002020202020202020202020202020202020203000000....",
  "....................00000004000000......000000000000000000020202020202020202000000000000000000..",
  "......................0000000000......0000000000000000000002020202020202020200000000000000000000",
  "........................000000........................00000202020202020202020000................",
  "..........................00..........................00000202020202020202020500................",
  "......................................................00000202020202020202020000................",
  "......................................................00000202020202020202030000................",
  "....................000000000000000000000000000000000000000202020202020203000000................",
  "....................0000000000000000000000000000000000000002020202020203000000..................",
  "....................00000303030303030303030303030303030000020202020203000000....................",
  "....................000003030303030303030303030303030300000202020203000000......................",
  "....................0000030303030303030303030303030303000002020203000000........................",
  "....................00000303030303030303030303030303030000020203000000..........................",
  "....................000003030303030303030303030303030300000203000000............................",
  "....................0000030303030303030303030303030303000003000000..............................",
  "....................00000303030303030303030303030303030000000000................................",
  "....................000003030303030303030303030303030300000000..................................",
  "....................0000030303030303030303030303030300000000....................................",
  "....................00000303030303030303030303030300000000......................................",
  "....................000000000000000000000000000000000000........................................",
  "....................0000000000000000000000000000000000..........................................",
};
